<?xml version="1.0" standalone="no"?>
<!DOCTYPE svg PUBLIC "-//W3C//DTD SVG 20010904//EN"
 "http://www.w3.org/TR/2001/REC-SVG-20010904/DTD/svg10.dtd">
<svg version="1.0" xmlns="http://www.w3.org/2000/svg"
 width="300.000000pt" height="300.000000pt" viewBox="0 0 300.000000 300.000000"
 preserveAspectRatio="xMidYMid meet">

<g transform="translate(0.000000,300.000000) scale(0.100000,-0.100000)"
fill="#1abc9c" stroke="none">
<path d="M882 2218 l-453 -363 7 -200 c3 -110 9 -278 13 -373 l6 -173 444 366
c289 238 447 362 455 357 6 -5 206 -167 444 -361 239 -194 436 -351 438 -348
7 7 27 714 21 731 -6 14 -906 726 -919 726 -2 0 -207 -163 -456 -362z"/>
<path d="M948 1453 l-358 -286 0 -79 c0 -43 3 -78 6 -78 18 0 492 456 601 578
90 102 129 152 116 151 -4 0 -169 -129 -365 -286z"/>
<path d="M1409 1702 c49 -70 253 -282 465 -484 l221 -211 8 69 c4 38 6 74 5
80 -2 8 -592 482 -708 568 -8 6 -4 -4 9 -22z"/>
<path d="M1194 1534 c-71 -81 -200 -215 -286 -299 l-158 -152 0 -82 0 -83 70
62 c85 76 260 268 341 376 63 84 140 225 157 287 6 20 9 37 8 37 -1 0 -61 -66
-132 -146z"/>
<path d="M1380 1648 c0 -32 100 -214 165 -300 82 -109 243 -287 327 -362 l63
-56 3 79 3 79 -219 218 c-121 121 -247 250 -281 289 -35 40 -61 63 -61 53z"/>
<path d="M1170 1120 l0 -80 80 0 80 0 0 80 0 80 -80 0 -80 0 0 -80z"/>
<path d="M1370 1120 l0 -80 80 0 80 0 0 80 0 80 -80 0 -80 0 0 -80z"/>
<path d="M1170 905 l0 -75 80 0 80 0 0 75 0 75 -80 0 -80 0 0 -75z"/>
<path d="M1370 905 l0 -75 80 0 80 0 0 75 0 75 -80 0 -80 0 0 -75z"/>
</g>
</svg>
